<svg xmlns="http://www.w3.org/2000/svg" width="150" height="75" viewBox="0 0 150 75" fill="none">
<path d="M17.9561 15.9938V29.6538L57.2061 29.6525V15.9938H17.9561ZM51.7999 19.675L52.1674 19.6825C52.2399 19.685 52.2986 19.7488 52.2986 19.8075V25.8988L51.7986 25.4688C51.8199 25.4313 51.8361 25.3938 51.8361 25.3438V19.7725C51.8299 19.74 51.8211 19.715 51.8111 19.6913L51.7999 19.675ZM52.1474 26H49.0499C49.0358 25.9167 49.004 25.8374 48.9566 25.7675C48.9091 25.6976 48.8471 25.6388 48.7749 25.595H51.5599C51.5896 25.5966 51.6193 25.5906 51.6461 25.5775L52.1474 26ZM45.4636 19.7675C45.5387 19.7143 45.626 19.6808 45.7174 19.67C45.7449 19.67 45.7799 19.665 45.8111 19.665H45.8386C46.4011 19.665 47.0699 19.7063 47.5886 19.9C48.1074 20.0938 48.4561 20.4163 48.4574 21.025H48.6449C48.6486 20.4275 48.9974 20.1125 49.5174 19.9C50.0174 19.705 50.7049 19.665 51.2611 19.665H51.3236C51.3511 19.665 51.3736 19.67 51.3986 19.67C51.4534 19.6786 51.5071 19.6933 51.5586 19.7138C51.5924 19.7313 51.6174 19.7475 51.6311 19.7575L51.6386 25.3288C51.6386 25.375 51.6011 25.41 51.5636 25.41H45.5386C45.4974 25.41 45.4636 25.3725 45.4636 25.3288V19.7663V19.7675ZM45.5386 25.5963H48.1661C48.0236 25.6838 47.9199 25.8463 47.8911 26.0013H44.9249C44.9124 26.0013 44.9049 25.9988 44.8924 25.9988L45.4099 25.5613C45.4499 25.5838 45.4936 25.5988 45.5386 25.5988V25.5963ZM44.8049 19.7963C44.8049 19.75 44.8586 19.6875 44.9324 19.6713L45.3036 19.6638C45.2889 19.689 45.28 19.7172 45.2774 19.7463V25.3175C45.2774 25.3475 45.2824 25.3775 45.2924 25.4025L44.7924 25.8188V19.7813L44.8049 19.7963ZM41.2761 19.6938C41.3449 19.6938 41.4061 19.765 41.4061 19.8188V25.8688L40.9086 25.4513C40.923 25.4207 40.9306 25.3875 40.9311 25.3538V19.7788C40.9249 19.7463 40.9161 19.7263 40.9061 19.7038L41.2749 19.705L41.2761 19.6938ZM41.2961 26.0138H38.1561C38.1446 25.931 38.1156 25.8515 38.071 25.7808C38.0264 25.7101 37.9672 25.6498 37.8974 25.6038H40.6686C40.7061 25.6038 40.7436 25.5938 40.7936 25.5788L41.2961 26.0138ZM37.7461 20.8363C37.7499 20.3138 38.0236 20.0363 38.4274 19.87C38.8311 19.7038 39.3549 19.665 39.7924 19.665L40.4924 19.6775C40.551 19.6848 40.608 19.7017 40.6611 19.7275C40.6911 19.74 40.7211 19.76 40.7361 19.7725L40.7424 19.7775V25.345C40.7424 25.3863 40.7086 25.4163 40.6699 25.4163H37.7474L37.7461 20.8363ZM34.5674 19.7763C34.5824 19.7675 34.6261 19.735 34.6774 19.7138C34.7261 19.6966 34.777 19.6861 34.8286 19.6825L35.5411 19.6638C35.9736 19.6638 36.4961 19.7013 36.8961 19.8688C37.2924 20.0438 37.5611 20.3138 37.5624 20.835V25.4138H34.6499C34.6036 25.4138 34.5699 25.3838 34.5699 25.3425V19.775L34.5674 19.7763ZM34.6474 25.6013H37.2574C37.1871 25.647 37.1274 25.7073 37.0823 25.778C37.0373 25.8487 37.0079 25.9282 36.9961 26.0113H34.0286C34.0161 26.0113 34.0036 26.0113 33.9886 26.005L34.5136 25.565C34.5511 25.59 34.5961 25.6013 34.6474 25.6013ZM33.9074 19.805C33.9074 19.765 33.9649 19.68 34.0386 19.68L34.4074 19.6788C34.3949 19.7013 34.3861 19.7225 34.3824 19.7538V25.3288C34.3838 25.3559 34.3902 25.3826 34.4011 25.4075L33.9086 25.8238L33.9074 19.805ZM30.0111 19.68L30.3786 19.6813C30.4474 19.6813 30.5099 19.7525 30.5099 19.8063V25.8713L30.0099 25.4463C30.0224 25.4138 30.0324 25.3788 30.0324 25.3413V19.7663C30.0311 19.735 30.0224 19.7138 30.0099 19.6913L30.0111 19.68ZM30.3936 26.0013H27.2599C27.2479 25.9189 27.219 25.8399 27.1749 25.7693C27.1307 25.6987 27.0724 25.6381 27.0036 25.5913H29.7711C29.8086 25.5913 29.8486 25.585 29.8811 25.5713L30.3936 26.0013ZM26.8536 20.8238C26.8574 20.3013 27.1286 20.0238 27.5311 19.8575C27.9336 19.6913 28.4611 19.6525 28.9011 19.6525L29.5961 19.665C29.6136 19.665 29.6999 19.6825 29.7649 19.715C29.7921 19.7267 29.8177 19.7419 29.8411 19.76L29.8474 19.765V25.3325C29.8474 25.3738 29.8136 25.4038 29.7699 25.4038H26.8499L26.8536 20.8238ZM23.6711 19.7638C23.6861 19.755 23.7311 19.7225 23.7961 19.7013C23.8447 19.685 23.8951 19.6745 23.9461 19.67L24.6561 19.6513C25.0899 19.6513 25.6086 19.6888 26.0086 19.8563C26.4061 20.0313 26.6749 20.3013 26.6799 20.8225L26.6786 25.4013H23.7499C23.7061 25.4013 23.6699 25.3713 23.6699 25.33L23.6711 19.7638ZM23.7499 25.6H26.3749C26.2324 25.6938 26.1411 25.84 26.1149 26.01H23.1249C23.0999 26.01 23.0836 26.01 23.0711 26.0013L23.5924 25.5563C23.6336 25.5838 23.6874 25.6 23.7386 25.6H23.7499ZM22.9999 19.8038C22.9999 19.7638 23.0574 19.6788 23.1286 19.6788L23.4936 19.6775C23.4811 19.7 23.4761 19.7175 23.4711 19.7525V25.3275C23.4711 25.3488 23.4761 25.3688 23.4836 25.395L22.9999 25.805V19.8038ZM22.3449 26.4588C22.2474 26.4588 22.1736 26.3775 22.1736 26.2838V25.3713C21.9174 25.3388 21.7186 25.1788 21.7186 24.99C21.7186 24.8013 21.9186 24.64 22.1736 24.6063V21.6625C21.9174 21.625 21.7186 21.47 21.7186 21.2813C21.7186 21.0925 21.9186 20.9363 22.1736 20.8988V19.7313C22.1736 19.6363 22.2486 19.5625 22.3449 19.5625L22.8549 19.6625C22.8299 19.7 22.8136 19.75 22.8124 19.8025V25.91C22.8136 26.0788 22.9586 26.1975 23.1224 26.1975H26.0899C26.1049 26.295 26.1461 26.3825 26.2049 26.4575L22.3449 26.4588ZM26.8386 26.4588H26.4949C26.4262 26.4249 26.3683 26.3726 26.3277 26.3077C26.2871 26.2428 26.2653 26.1678 26.2649 26.0913C26.2649 25.9849 26.3071 25.8828 26.3824 25.8075C26.4576 25.7323 26.5597 25.69 26.6661 25.69C26.7725 25.69 26.8746 25.7323 26.9498 25.8075C27.0251 25.8828 27.0674 25.9849 27.0674 26.0913C27.0674 26.2538 26.9736 26.3913 26.8374 26.4588H26.8386ZM31.5711 24.9913C31.5711 25.1788 31.3736 25.3338 31.1186 25.3725V26.285C31.1186 26.3763 31.0436 26.46 30.9474 26.46H27.1249C27.1826 26.3826 27.2227 26.2934 27.2424 26.1988H30.3724C30.5311 26.1988 30.6761 26.08 30.6761 25.9113V19.8038C30.6761 19.7338 30.6511 19.6738 30.6136 19.6263L30.9461 19.5638C31.0424 19.5638 31.1174 19.6388 31.1174 19.7325V20.9013C31.3736 20.9388 31.5699 21.0913 31.5699 21.2825C31.5699 21.4738 31.3724 21.6263 31.1174 21.6638V24.6075C31.3749 24.645 31.5711 24.805 31.5711 24.9913ZM33.2336 26.4588C33.1399 26.4588 33.0661 26.3775 33.0661 26.2838V25.3713C32.8161 25.3388 32.6086 25.1788 32.6086 24.99C32.6086 24.8013 32.8036 24.64 33.0661 24.6063V21.6625C32.8161 21.625 32.6086 21.47 32.6086 21.2813C32.6086 21.0925 32.8036 20.9363 33.0661 20.8988V19.7313C33.0661 19.6363 33.1386 19.5625 33.2336 19.5625L33.7336 19.6625C33.7086 19.7025 33.6961 19.75 33.6961 19.8025V25.91C33.6961 26.0788 33.8386 26.1975 34.0024 26.1975H36.9711C36.9885 26.292 37.0279 26.3811 37.0861 26.4575L33.2336 26.4588ZM37.7299 26.4588H37.3836C37.2536 26.3913 37.1561 26.255 37.1561 26.0913C37.1561 25.8738 37.3374 25.6938 37.5611 25.6938C37.667 25.6934 37.7687 25.7351 37.8439 25.8096C37.9191 25.8841 37.9617 25.9854 37.9624 26.0913C37.9636 26.2538 37.8649 26.3913 37.7299 26.4588ZM42.4624 24.9913C42.4624 25.1788 42.2699 25.3338 42.0124 25.3725V26.285C42.012 26.3308 41.9938 26.3746 41.9616 26.4071C41.9293 26.4396 41.8856 26.4581 41.8399 26.4588H38.0211C38.0783 26.3813 38.1176 26.2921 38.1361 26.1975H41.2636C41.4261 26.1975 41.5736 26.0788 41.5736 25.91V19.8025C41.5736 19.7325 41.5486 19.6725 41.5086 19.625L41.8411 19.5625C41.9386 19.5625 42.0136 19.6375 42.0136 19.7313V20.9C42.2711 20.9375 42.4636 21.09 42.4636 21.2813C42.4636 21.4725 42.2711 21.625 42.0136 21.6625V24.6063C42.2711 24.6438 42.4636 24.8038 42.4636 24.99L42.4624 24.9913ZM44.1286 26.4588C44.0411 26.4588 43.9599 26.3775 43.9599 26.2838V25.3713C43.7099 25.3388 43.5061 25.1788 43.5061 24.99C43.5061 24.8013 43.6999 24.64 43.9599 24.6063V21.6625C43.7099 21.625 43.5061 21.47 43.5061 21.2813C43.5061 21.0925 43.6999 20.9363 43.9599 20.8988V19.7313C43.9599 19.6363 44.0386 19.5625 44.1286 19.5625L44.6349 19.6625C44.6139 19.7028 44.6019 19.7472 44.5999 19.7925V25.9C44.6036 26.065 44.7449 26.1825 44.9074 26.1825H47.8749C47.8924 26.285 47.9374 26.375 47.9961 26.4575L44.1286 26.4588ZM48.6261 26.4588H48.2824C48.1574 26.3913 48.0536 26.255 48.0536 26.0913C48.0543 25.9861 48.0964 25.8853 48.1708 25.8109C48.2452 25.7365 48.3459 25.6944 48.4511 25.6938C48.6761 25.6938 48.8574 25.8738 48.8574 26.0913C48.8574 26.2538 48.7586 26.3913 48.6261 26.4588ZM53.3599 24.9913C53.3599 25.1788 53.1636 25.3413 52.9011 25.3725V26.285C52.9011 26.3763 52.8286 26.46 52.7349 26.46H48.9124C48.9745 26.3797 49.0158 26.2852 49.0324 26.185H52.1549C52.3199 26.185 52.4674 26.0675 52.4674 25.8975V19.7938C52.4674 19.7288 52.4449 19.6738 52.4124 19.6263L52.7349 19.5638C52.8286 19.5638 52.9011 19.6388 52.9011 19.7325V20.9C53.1511 20.9375 53.3599 21.09 53.3599 21.2825C53.3599 21.475 53.1636 21.6263 52.9011 21.6638V24.6075C53.1511 24.645 53.3599 24.805 53.3599 24.9913ZM28.3649 23.9413C28.1724 23.9413 28.1186 23.8938 28.1186 23.7163V22.7388C28.4086 22.7388 28.5586 22.8575 28.5961 23.3638H28.6686V22H28.5961C28.5486 22.5 28.4011 22.6075 28.1186 22.6025V21.665C28.1186 21.49 28.1686 21.4775 28.3311 21.4775C28.7274 21.4775 28.9361 21.5775 29.0011 22.1525H29.0736V21.3375H27.3786V21.4413C27.5036 21.4538 27.6286 21.46 27.6286 21.7288V23.6875C27.6286 23.93 27.5374 23.9463 27.3786 23.9688V24.0713H29.1011L29.2199 23.2275H29.1349C28.9499 23.8525 28.6549 23.945 28.3636 23.945L28.3649 23.9413ZM49.9749 23.8588C50.0661 23.8588 50.1961 23.9838 50.4786 23.9838C51.0161 23.9838 51.2061 23.4938 51.2061 23.1338C51.2061 22.6963 50.9849 22.4613 50.8811 22.3838L50.4536 22.09C50.2036 21.9213 50.1499 21.8325 50.1499 21.615C50.1499 21.365 50.3124 21.2313 50.4624 21.2313C50.8124 21.2313 50.9874 21.6938 51.0424 21.975H51.1224V21.1H51.0386C51.0211 21.1813 51.0074 21.2413 50.9386 21.2413C50.8561 21.2413 50.7174 21.1063 50.4824 21.1063C49.9224 21.1063 49.8324 21.6563 49.8324 21.9063C49.8324 22.0938 49.8324 22.4388 50.3361 22.7813L50.5336 22.9063C50.7211 23.0288 50.8586 23.1275 50.8586 23.4063C50.8586 23.465 50.8499 23.865 50.4836 23.865C50.1086 23.865 49.9374 23.4025 49.8774 22.9975H49.7924V23.9975H49.8774C49.8924 23.9313 49.9024 23.8725 49.9649 23.8725L49.9749 23.8588ZM24.2999 21.665L25.0499 24.0863H25.1286L25.7986 21.7163C25.8674 21.4913 25.9036 21.41 26.0636 21.385V21.2825H25.4386V21.385C25.6074 21.3975 25.6924 21.41 25.6924 21.5675C25.6924 21.65 25.6599 21.755 25.6349 21.8488L25.2599 23.1738L24.8786 21.8988C24.8511 21.7988 24.7874 21.6263 24.7874 21.5488C24.7874 21.3988 24.8574 21.3988 25.0436 21.3825V21.28H24.0436V21.3825C24.1686 21.4075 24.2149 21.42 24.2899 21.6625L24.2999 21.665ZM36.0211 23.89C35.8311 23.8525 35.7649 23.84 35.7649 23.52V22.7275H35.8436L36.4536 23.995H37.0536V23.89C37.0161 23.89 36.9724 23.8888 36.9324 23.815L36.3411 22.665C36.4986 22.5925 36.8011 22.47 36.8011 21.97C36.8011 21.2913 36.1811 21.26 35.9761 21.26H35.0299V21.3675C35.1974 21.38 35.2899 21.3875 35.2899 21.7325V23.52C35.2899 23.845 35.2274 23.8575 35.0299 23.89V23.995H36.0211V23.89ZM35.7649 21.57C35.7774 21.4413 35.7849 21.3988 35.9499 21.3988C36.1836 21.3988 36.3036 21.5738 36.3036 21.9813C36.3036 22.5025 36.1536 22.6063 35.7661 22.5963L35.7649 21.57ZM46.3111 21.3925V23.5175C46.3111 23.855 46.2436 23.8675 46.0261 23.8875V23.9925H47.0786V23.875C46.8574 23.855 46.7874 23.8463 46.7874 23.505V21.38C46.9899 21.3888 47.2936 21.4175 47.3499 22.0638H47.4374L47.4336 21.2388H45.6674L45.6611 22.0538H45.7486C45.8036 21.4038 46.1036 21.3788 46.3111 21.37V21.3925ZM48.0986 23.8863C47.9986 23.8775 47.8561 23.8663 47.8561 23.7138C47.8561 23.645 47.9061 23.4788 47.9899 23.185H48.6499C48.6874 23.315 48.7786 23.6163 48.7786 23.7263C48.7786 23.86 48.7286 23.8663 48.5486 23.8863V23.9813H49.4986V23.875C49.3586 23.8838 49.3111 23.7425 49.1786 23.3125L48.5261 21.1875H48.4449L47.7949 23.4C47.7036 23.705 47.6636 23.8438 47.5049 23.875V23.97H48.1011L48.0986 23.8863ZM48.3074 22.0525L48.6024 23.0313H48.0299L48.3074 22.0525ZM38.6824 21.3675C38.8074 21.3763 38.9549 21.385 38.9549 21.6475V23.6013C38.9549 23.8513 38.8399 23.8688 38.6824 23.8888V23.9938H39.7124V23.8888C39.5499 23.8763 39.4324 23.86 39.4324 23.6013V21.6513C39.4324 21.3813 39.5724 21.3763 39.7124 21.3713V21.25H38.6824V21.3675ZM44.6624 30.9175C44.9118 31.2999 45.0795 31.7297 45.1549 32.18C45.3674 33.4513 44.7474 34.795 42.4236 34.93C42.3861 36.835 41.9174 37.6138 39.5011 37.655C39.7099 39.6825 38.6511 40.3425 37.5099 40.3425C36.3686 40.3425 35.3036 39.6838 35.5136 37.655C33.0974 37.6113 32.6311 36.8325 32.5886 34.93C30.2636 34.8088 29.6474 33.465 29.8636 32.18C29.9336 31.7275 30.1086 31.2888 30.3536 30.93H17.9536V31.56C17.9749 54.875 37.2336 64.9 37.2911 64.9313L37.5824 65.0875L37.8786 64.9313C37.9361 64.9 57.1974 54.8625 57.2161 31.56V30.93L44.6624 30.9175ZM28.5749 52.3C29.0374 52.0575 29.3911 51.3463 29.4749 50.8625C29.5999 50.2375 29.7174 49.9875 30.0499 49.965C30.3824 49.9425 30.5124 50.2375 30.6249 50.8625C30.7074 51.3463 31.0599 52.0563 31.5224 52.3C31.8099 52.4525 32.7399 52.475 32.5511 53.02C32.4224 53.2675 32.2511 53.775 32.0011 53.55C31.7511 53.325 31.3111 52.7375 31.1261 52.7C30.9586 52.6713 30.9824 52.925 31.0536 53.0125C31.1511 53.1225 31.4449 53.55 31.6124 53.7463C31.8249 53.9863 31.8899 54.4275 31.5186 54.6013C31.1474 54.775 30.7686 54.5538 30.7774 54.355C30.7899 54.055 30.6111 53.1988 30.4486 53.1988C30.3199 53.1988 30.3149 53.4238 30.3286 53.6638C30.2786 54.1688 30.6161 54.5725 30.5786 54.8325C30.5324 55.085 30.4786 55.3538 30.0361 55.3488C29.5911 55.3363 29.5361 55.0988 29.4936 54.8325C29.4524 54.5825 29.7936 54.1675 29.7386 53.6638C29.7536 53.4225 29.7486 53.1988 29.6199 53.1988C29.4624 53.1988 29.2749 54.0563 29.2949 54.355C29.3024 54.555 28.9199 54.7763 28.5499 54.6013C28.1799 54.4263 28.2449 53.985 28.4536 53.7463C28.6224 53.5488 28.9199 53.1238 29.0161 53.0125C29.0849 52.925 29.1136 52.6713 28.9436 52.7C28.7724 52.7375 28.3386 53.3225 28.0836 53.55C27.8286 53.7775 27.6611 53.2675 27.5336 53.02C27.3461 52.4763 28.2736 52.4525 28.5624 52.3H28.5749ZM28.8924 50.7C29.1886 50.6663 29.0399 50.975 29.0086 51.25C28.9774 51.525 28.9036 51.55 28.6174 51.165C28.3311 50.78 28.5711 50.7363 28.8924 50.7025V50.7ZM31.1924 50.7275C31.5111 50.77 31.7549 50.815 31.4674 51.19C31.1799 51.575 31.1074 51.545 31.0749 51.2775C31.0424 51.01 30.8936 50.6975 31.1924 50.725V50.7275ZM44.8924 53.1988C44.7336 53.1988 44.5549 54.0563 44.5674 54.355C44.5749 54.555 44.1974 54.7763 43.8236 54.6013C43.4499 54.4263 43.5199 53.985 43.7299 53.7463C43.8999 53.5488 44.1986 53.1238 44.2924 53.0125C44.3599 52.925 44.3861 52.6713 44.2174 52.7C44.0486 52.7375 43.6111 53.3225 43.3424 53.55C43.0736 53.7775 42.9211 53.2675 42.7924 53.02C42.5999 52.4775 43.5324 52.4525 43.8174 52.3C44.2799 52.0575 44.6336 51.3463 44.7174 50.8625C44.8261 50.2375 44.9674 49.9875 45.2924 49.965C45.6174 49.9425 45.7499 50.2375 45.8674 50.8625C45.9486 51.3463 46.3049 52.0563 46.7674 52.3C47.0549 52.4525 47.9836 52.475 47.7961 53.02C47.6649 53.2675 47.4961 53.775 47.2424 53.55C46.9886 53.325 46.5549 52.7375 46.3836 52.7C46.2174 52.6713 46.2411 52.925 46.3111 53.0125C46.4111 53.1225 46.7061 53.55 46.8761 53.7463C47.0886 53.9863 47.1511 54.4275 46.7761 54.6013C46.4011 54.775 46.0261 54.5538 46.0361 54.355C46.0486 54.055 45.8674 53.1988 45.7074 53.1988C45.5774 53.1988 45.5824 53.4238 45.5886 53.6638C45.5336 54.1688 45.8761 54.5725 45.8311 54.8325C45.7899 55.085 45.7349 55.3538 45.2936 55.3488C44.8461 55.3363 44.7936 55.0988 44.7486 54.8325C44.7061 54.5825 45.0461 54.1675 44.9936 53.6638C45.0111 53.4225 45.0086 53.1988 44.8749 53.1988H44.8924ZM44.1511 50.6988C44.4511 50.665 44.2974 50.9738 44.2699 51.2488C44.2424 51.5238 44.1624 51.5488 43.8786 51.1638C43.5949 50.7788 43.8336 50.735 44.1536 50.7013L44.1511 50.6988ZM46.4511 50.7263C46.7736 50.7688 47.0099 50.8138 46.7261 51.1888C46.4411 51.5738 46.3661 51.5438 46.3349 51.2763C46.3036 51.0088 46.1499 50.6963 46.4499 50.7238L46.4511 50.7263ZM46.7261 35.8213C46.4411 36.2038 46.3661 36.1763 46.3349 35.905C46.3036 35.6338 46.1499 35.3263 46.4499 35.355C46.7711 35.39 47.0099 35.4425 46.7261 35.8213ZM44.1486 35.3263C44.4486 35.2938 44.2949 35.605 44.2674 35.8725C44.2399 36.14 44.1599 36.1763 43.8761 35.7925C43.5924 35.4088 43.8311 35.3588 44.1511 35.3263H44.1486ZM43.8311 36.9263C44.2936 36.6838 44.6474 35.98 44.7311 35.4913C44.8399 34.8625 44.9811 34.6163 45.3061 34.5913C45.6311 34.585 45.7636 34.8638 45.8811 35.4913C45.9624 35.9913 46.3186 36.6825 46.7811 36.9263C47.0686 37.0813 47.9974 37.1013 47.8099 37.6475C47.6786 37.9025 47.5099 38.4025 47.2561 38.1775C47.0024 37.9525 46.5686 37.365 46.3974 37.33C46.2261 37.295 46.2549 37.5625 46.3249 37.6388C46.4249 37.755 46.7199 38.1763 46.8899 38.3713C47.1024 38.6125 47.1649 39.0588 46.7899 39.2463C46.4149 39.4338 46.0399 39.1963 46.0499 38.9963C46.0624 38.6963 45.8811 37.8388 45.7211 37.8388C45.5911 37.8388 45.5961 38.0588 45.6024 38.3063C45.5474 38.81 45.8899 39.2113 45.8449 39.4725C45.7999 39.7338 45.7486 39.995 45.3074 39.9888C44.8599 39.9788 44.8074 39.7313 44.7624 39.4725C44.7174 39.2138 45.0599 38.81 45.0074 38.3063C45.0274 38.0588 45.0236 37.8388 44.8886 37.8388C44.7299 37.8388 44.5511 38.6975 44.5636 38.9963C44.5711 39.1925 44.1936 39.4175 43.8199 39.2463C43.4461 39.075 43.5161 38.625 43.7261 38.3888C43.8961 38.1888 44.1949 37.7675 44.2886 37.6388C44.3561 37.5638 44.3824 37.2975 44.2136 37.33C44.0449 37.3625 43.6074 37.95 43.3386 38.1775C43.0699 38.405 42.9174 37.9025 42.7886 37.6475C42.5961 37.1 43.5286 37.0825 43.8136 36.9263H43.8311ZM45.3061 43.0513C45.0936 40.9013 46.4486 40.2838 48.0586 40.4075C47.8461 38.2575 48.9336 37.5538 50.8561 37.635C50.6011 35.1188 52.2986 34.8288 53.6136 34.9125C53.4099 33.0375 54.7449 32.265 55.6511 32.17H55.9386C55.8136 40.795 52.9311 47.4575 49.4786 52.4275C48.0461 52.0725 47.8161 50.9125 47.9311 49.87C45.8149 50.12 44.9661 48.5888 45.2599 47.1425C44.4549 47.43 42.7161 47.0175 42.5061 45.4875C42.2961 43.9575 43.5249 43.0513 45.3061 43.0513ZM38.8061 43.0338C39.1261 43.0663 39.3686 43.115 39.0836 43.4938C38.7986 43.8725 38.7236 43.8475 38.6924 43.5775C38.6611 43.3075 38.5074 43 38.8174 43.0338H38.8061ZM36.5061 43C36.7999 42.9663 36.6524 43.28 36.6311 43.545C36.6099 43.81 36.5274 43.8475 36.2561 43.4663C35.9849 43.085 36.2099 43.035 36.5336 43H36.5061ZM36.1874 44.6C36.6474 44.3575 37.0036 43.65 37.0849 43.1625C37.1949 42.54 37.3311 42.2875 37.6599 42.265C37.9886 42.2425 38.1224 42.54 38.2299 43.1625C38.3149 43.6625 38.6699 44.3563 39.1299 44.6C39.4199 44.7525 40.3499 44.775 40.1599 45.325C40.0286 45.5788 39.8599 46.0813 39.6074 45.855C39.3549 45.6288 38.9161 45.04 38.7511 45.005C38.5786 44.975 38.6049 45.23 38.6761 45.3175C38.7711 45.4425 39.0674 45.855 39.2386 46.0513C39.4511 46.2925 39.5111 46.7313 39.1411 46.9075C38.7711 47.0838 38.3886 46.8575 38.3974 46.6575C38.4161 46.355 38.2286 45.5013 38.0686 45.5013C37.9411 45.5013 37.9374 45.7188 37.9436 45.96C37.8936 46.46 38.2311 46.875 38.1886 47.135C38.1461 47.395 38.0911 47.6563 37.6486 47.65C37.2061 47.6438 37.1486 47.4 37.1111 47.135C37.0649 46.8763 37.4024 46.4725 37.3511 45.96C37.3661 45.72 37.3599 45.5013 37.2349 45.5013C37.0724 45.5013 36.8924 46.355 36.9036 46.6575C36.9161 46.855 36.5349 47.08 36.1636 46.9075C35.7924 46.735 35.8574 46.2925 36.0699 46.0513C36.2386 45.8563 36.5349 45.43 36.6286 45.3175C36.6986 45.23 36.7261 44.9763 36.5536 45.005C36.3811 45.0338 35.9499 45.625 35.6986 45.855C35.4474 46.085 35.2736 45.58 35.1449 45.325C34.9549 44.775 35.8949 44.7525 36.1736 44.6H36.1874ZM35.4961 52.725C35.3286 51.1075 36.3036 50.04 37.6174 50.04C38.9311 50.04 39.9049 51.1075 39.7386 52.725C41.1799 52.3125 43.0861 53.0075 42.6224 55.4913C44.2674 54.9338 45.5349 55.795 45.6149 57.145C41.9711 60.9413 38.5399 63.045 37.5499 63.6263C36.5449 63.0513 33.1786 60.9788 29.6036 57.27C29.6036 55.8475 30.9161 54.9138 32.6136 55.4913C32.1474 53.0075 34.0574 52.3138 35.4961 52.725ZM32.7836 45.475C32.5711 47.0025 30.8336 47.4175 30.0299 47.13C30.3224 48.5763 29.4799 50.105 27.3574 49.8575C27.4774 50.9375 27.2324 52.1575 25.6674 52.4525C22.2136 47.4775 19.3299 40.785 19.1999 32.165C19.2124 32.165 19.2249 32.16 19.2374 32.16H19.6374C20.5474 32.26 21.8774 33.0275 21.6799 34.9025C22.9924 34.8188 24.6886 35.1088 24.4349 37.625C26.3424 37.5438 27.4449 38.2463 27.2299 40.3975C28.8549 40.2725 30.2049 40.8913 29.9899 43.0413C31.7674 43.04 32.9961 43.95 32.7849 45.4763L32.7836 45.475ZM28.6524 35.8463C28.6149 36.1188 28.5449 36.15 28.2574 35.7663C27.9699 35.3825 28.2174 35.3325 28.5361 35.3C28.8361 35.2675 28.6836 35.5775 28.6524 35.8463ZM30.8361 35.3288C31.1549 35.3663 31.3961 35.4163 31.1111 35.795C30.8261 36.1738 30.7524 36.15 30.7199 35.8788C30.6874 35.6075 30.5449 35.3013 30.8361 35.3288ZM30.2611 35.4538C30.3486 35.9538 30.7011 36.645 31.1636 36.8888C31.4511 37.0438 32.3836 37.0638 32.1911 37.61C32.0624 37.865 31.8936 38.3688 31.6386 38.14C31.3836 37.9113 30.9511 37.3275 30.7824 37.2925C30.6136 37.2575 30.6399 37.525 30.7111 37.6013C30.8049 37.7175 31.0861 38.1388 31.2736 38.3513C31.4836 38.6013 31.5486 39.035 31.1786 39.2088C30.8086 39.3825 30.4286 39.1588 30.4349 38.9588C30.4499 38.6588 30.2649 37.8013 30.1049 37.8013C29.9799 37.8013 29.9736 38.0213 29.9799 38.2688C29.9249 38.7725 30.2611 39.1738 30.2199 39.435C30.1786 39.6963 30.1236 39.9575 29.6799 39.9513C29.2361 39.945 29.1824 39.6938 29.1399 39.435C29.0974 39.1763 29.4374 38.7725 29.3824 38.2688C29.4024 38.0213 29.3949 37.8013 29.2574 37.8013C29.0986 37.8013 28.9136 38.66 28.9261 38.9588C28.9386 39.155 28.5586 39.38 28.1761 39.2088C27.7936 39.0375 27.8674 38.5875 28.0811 38.3513C28.2486 38.1513 28.5474 37.73 28.6411 37.6013C28.7124 37.5263 28.7374 37.26 28.5686 37.2925C28.3999 37.325 27.9649 37.9125 27.7099 38.14C27.4549 38.3675 27.2849 37.865 27.1599 37.61C26.9674 37.0625 27.9099 37.045 28.1849 36.8888C28.6474 36.6463 28.9974 35.9425 29.0849 35.4538C29.1936 34.825 29.3299 34.5788 29.6549 34.5538C29.9861 34.5475 30.1174 34.8263 30.2249 35.4538H30.2611ZM77.4236 40.2C77.4236 41.9775 76.2061 43.175 73.5111 43.175H68.4574V32.15H73.3611C75.7011 32.15 76.9536 33.2163 76.9536 35.0325C76.9536 36.325 76.2061 37.2238 75.0261 37.5225C76.5799 37.8413 77.4211 38.89 77.4211 40.2H77.4236ZM71.4999 36.75H72.6799C73.4674 36.75 73.9549 36.45 73.9549 35.7C73.9549 34.95 73.4549 34.65 72.6799 34.65H71.4999V36.75ZM71.4999 40.6625H73.0911C73.8574 40.6625 74.2886 40.325 74.2886 39.69C74.2886 39.055 73.8574 38.715 73.0911 38.715H71.4999V40.6625ZM83.4049 41.5775C83.1599 42.72 82.2799 43.41 80.8024 43.41C79.2299 43.41 78.1274 42.4375 78.1274 40.41V34.525H81.1586V39.75C81.1586 40.625 81.4011 41.135 82.0961 41.135C82.8836 41.135 83.3711 40.4225 83.3711 39.02V34.525H86.3749V43.1725H83.6624L83.4049 41.5775ZM89.4749 40.2C89.535 40.5145 89.706 40.7969 89.9567 40.996C90.2074 41.195 90.5212 41.2976 90.8411 41.285C91.3836 41.285 91.7586 41.0975 91.7586 40.7225C91.7586 40.3475 91.4411 40.18 90.8211 40.0475L89.6586 39.8038C88.0861 39.4663 87.2624 38.6613 87.2624 37.2388C87.2624 35.1425 89.0599 34.3188 90.9874 34.3188C93.0649 34.3188 94.3186 35.1938 94.6174 36.79L91.8674 37.2025C91.7736 36.7025 91.4749 36.435 90.8924 36.435C90.4624 36.435 90.1624 36.6413 90.1624 36.9775C90.1624 37.3138 90.4049 37.4825 90.8549 37.5588L92.0149 37.765C93.9236 38.0838 94.7274 39.1125 94.7274 40.5725C94.7274 42.6125 92.9499 43.3975 90.8149 43.3975C88.8499 43.3975 87.5399 42.6875 87.0649 41.1513L89.4749 40.2ZM97.1099 30.7813C98.0099 30.7813 98.7761 31.3988 98.7761 32.3725C98.7761 33.3463 98.0086 33.9638 97.1099 33.9638C96.2111 33.9638 95.4449 33.3463 95.4449 32.3725C95.4449 31.3988 96.2124 30.7813 97.1099 30.7813ZM98.6249 34.525V43.1725H95.6249V34.525H98.6249ZM102.932 36.1925C103.382 34.9 104.392 34.32 105.682 34.32C107.011 34.32 108.21 35.1075 108.21 37.0913V43.175H105.21V38.25C105.21 37.37 104.96 36.8275 104.181 36.8275C103.526 36.8275 102.965 37.2213 102.965 38.55V43.1725H99.9374V34.525H102.652L102.932 36.1925ZM114.704 40.05L117.212 40.8375C116.712 42.69 115.19 43.4 113.467 43.4C110.905 43.4 109.032 41.7725 109.032 38.945C109.032 36.025 110.679 34.32 113.407 34.32C115.97 34.32 117.282 35.9675 117.282 38.3638L117.245 39.4513H111.95C112.007 40.5188 112.53 41.0975 113.43 41.0975C114.055 41.0975 114.497 40.8175 114.702 40.0513L114.704 40.05ZM114.404 37.915C114.404 37.165 114.154 36.51 113.299 36.51C112.569 36.51 112.101 37.11 112.026 37.915H114.404Z" fill="#838383"/>
<path d="M120.037 40.2C120.098 40.5144 120.268 40.7968 120.519 40.9959C120.77 41.195 121.084 41.2976 121.404 41.285C121.946 41.285 122.321 41.0975 122.321 40.7225C122.321 40.3475 122.004 40.18 121.386 40.0475L120.224 39.8037C118.651 39.4662 117.829 38.6612 117.829 37.2387C117.829 35.1425 119.625 34.3187 121.554 34.3187C123.632 34.3187 124.886 35.1812 125.185 36.79L122.432 37.2025C122.339 36.7025 122.04 36.435 121.457 36.435C121.027 36.435 120.727 36.6412 120.727 36.9775C120.727 37.3137 120.97 37.4825 121.42 37.5587L122.582 37.765C124.491 38.0837 125.295 39.1125 125.295 40.5725C125.295 42.6125 123.516 43.3975 121.382 43.3975C119.417 43.3975 118.107 42.6875 117.632 41.1512L120.037 40.2Z" fill="#838383"/>
<path d="M128.05 40.2C128.11 40.5144 128.281 40.7968 128.532 40.9959C128.783 41.195 129.096 41.2976 129.416 41.285C129.959 41.285 130.335 41.0975 130.335 40.7225C130.335 40.3475 130.016 40.18 129.398 40.0475L128.238 39.8037C126.665 39.4662 125.84 38.6612 125.84 37.2387C125.84 35.1425 127.638 34.3187 129.565 34.3187C131.643 34.3187 132.896 35.1937 133.196 36.79L130.443 37.2025C130.35 36.7025 130.05 36.435 129.47 36.435C129.04 36.435 128.74 36.6412 128.74 36.9775C128.74 37.3137 128.983 37.4825 129.433 37.5587L130.593 37.765C132.503 38.0837 133.308 39.1125 133.308 40.5725C133.308 42.6125 131.529 43.3975 129.395 43.3975C127.43 43.3975 126.12 42.6875 125.645 41.1512L128.05 40.2ZM74.6325 56.5225C74.2788 56.2225 74.1475 55.81 74.0163 55.2875L73.6788 53.9212C73.4913 53.1337 73.1738 52.9837 72.4613 52.9837H71.5075V56.5212H68.4575V45.5H73.1738C75.6438 45.5 77.3488 46.4537 77.3488 48.9625C77.3488 50.7037 76.2238 51.565 75.0088 51.77C76.0188 51.9762 76.525 52.4237 76.7875 53.38L77.3125 55.27C77.4438 55.77 77.5925 56.145 77.9875 56.525L74.6325 56.5225ZM71.5075 50.515H72.6875C73.7538 50.515 74.2225 50.0825 74.2225 49.2975C74.2225 48.5125 73.7538 48.08 72.6875 48.08H71.5075V50.515ZM83.4675 53.3975L85.975 54.185C85.475 56.0387 83.9525 56.7475 82.2313 56.7475C79.6663 56.7475 77.7938 55.1187 77.7938 52.2937C77.7938 49.3737 79.4413 47.6687 82.1688 47.6687C84.7313 47.6687 86.0438 49.3162 86.0438 51.7112L86.0063 52.7987H80.7313C80.7875 53.8637 81.3113 54.4437 82.21 54.4437C82.845 54.4437 83.2763 54.165 83.4825 53.3975H83.4675ZM83.1675 51.25C83.1675 50.5025 82.9175 49.8475 82.0638 49.8475C81.3338 49.8475 80.8663 50.4475 80.7913 51.25H83.1675ZM85.8075 47.875H89L89.9925 51.3562L90.555 53.4725H90.5925C90.5925 53.4725 90.78 52.5975 91.1738 51.3562L92.2963 47.875H95.2338L92.09 56.5212H88.8338L85.8075 47.875ZM97.3725 44.1337C98.2725 44.1337 99.04 44.7512 99.04 45.725C99.04 46.6987 98.2713 47.315 97.3725 47.315C96.4738 47.315 95.7075 46.6987 95.7075 45.725C95.7075 44.7512 96.475 44.1337 97.3725 44.1337ZM98.875 47.875V56.5212H95.875V47.875H98.875ZM105.484 53.3975L107.991 54.185C107.491 56.0387 105.97 56.7475 104.249 56.7475C101.686 56.7475 99.8138 55.1187 99.8138 52.2937C99.8138 49.3737 101.461 47.6687 104.189 47.6687C106.751 47.6687 108.064 49.3162 108.064 51.7112L108.026 52.7987H102.75C102.806 53.8637 103.329 54.4437 104.228 54.4437C104.853 54.4437 105.296 54.165 105.503 53.3975H105.484ZM105.198 51.25C105.198 50.5025 104.948 49.8475 104.094 49.8475C103.363 49.8475 102.894 50.4475 102.821 51.25H105.198ZM116.148 47.875L116.765 50.875L117.265 53.59H117.303L117.845 50.9125L118.538 47.8625H121.475L119.138 56.5087H115.763L115.238 53.9812L114.769 51.2112H114.731L114.264 53.9812L113.739 56.5087H110.37L108.004 47.875H111.054L111.746 50.925L112.289 53.6025H112.326L112.826 50.8875L113.445 47.8875L116.148 47.875ZM86.8 26.975C86.8 27.3875 86.925 27.6 87.2313 27.6C87.4188 27.6 87.6063 27.525 87.7738 27.4312V29.5662C87.3613 29.8662 86.97 29.9787 86.2763 29.9787C85.1163 29.9787 84.48 29.4537 84.1413 28.6112C83.6413 29.5112 82.8863 30.0162 81.6413 30.0162C80.0513 30.0162 79.0575 29.0787 79.0575 27.6012C79.0575 25.7475 80.3863 24.8137 82.9875 24.8137H83.8675V24.2337C83.8675 23.6712 83.68 23.2787 83.1375 23.2787C82.6125 23.2787 82.3713 23.5975 82.3338 24.3087L79.45 23.8587C79.6188 22.08 81.005 20.9587 83.2313 20.9587C85.7025 20.9587 86.7875 22.0462 86.7875 23.9362L86.8 26.975ZM83.88 26.3575H83.5C82.4125 26.3575 82.0375 26.695 82.0375 27.2575C82.0375 27.67 82.3175 27.9875 82.8425 27.9875C83.3475 27.9875 83.89 27.7375 83.89 26.9212L83.88 26.3575ZM94.1575 24.58C93.8013 24.4487 93.595 24.355 93.1075 24.355C92.395 24.355 91.5363 24.635 91.5363 26.1712V29.8212H88.52V21.1712H91.1038L91.4038 23.3062C91.6463 21.8637 92.8638 21.1712 94.3413 21.1712L94.1575 24.58Z" fill="#838383"/>
<path d="M94.625 21.1726H97.8088L98.8 24.6551L99.3625 26.7701H99.4C99.4 26.7701 99.5875 25.8951 99.98 24.6551L101.103 21.1726H104.04L100.895 29.8226H97.65L94.625 21.1726ZM111.315 26.9751C111.315 27.3876 111.44 27.6001 111.746 27.6001C111.938 27.5901 112.125 27.532 112.289 27.4313V29.5663C111.876 29.8663 111.484 29.9788 110.791 29.9788C109.631 29.9788 108.995 29.4538 108.658 28.6113C108.158 29.5113 107.404 30.0163 106.158 30.0163C104.566 30.0163 103.574 29.0788 103.574 27.6013C103.574 25.7476 104.901 24.8138 107.504 24.8138H108.384V24.2338C108.384 23.6713 108.196 23.2788 107.654 23.2788C107.129 23.2788 106.886 23.5976 106.849 24.3088L103.966 23.8588C104.134 22.0801 105.52 20.9588 107.748 20.9588C110.219 20.9588 111.304 22.0463 111.304 23.9363L111.315 26.9751ZM108.395 26.3576H108C106.915 26.3576 106.541 26.6951 106.541 27.2576C106.541 27.6701 106.821 27.9876 107.346 27.9876C107.853 27.9876 108.396 27.7376 108.396 26.9213L108.395 26.3576ZM118.67 24.5801C118.314 24.4488 118.11 24.3551 117.62 24.3551C116.91 24.3551 116.049 24.6351 116.049 26.1713V29.8213H113.049V21.1713H115.633L115.933 23.3063C116.176 21.8638 117.395 21.1713 118.873 21.1713L118.67 24.5801ZM125.238 18.2526H128.271V29.8213H125.538L125.258 28.3238C124.939 29.4838 123.908 30.0463 122.599 30.0463C120.578 30.0463 119.136 28.4738 119.136 25.6651C119.136 22.7651 120.511 20.9651 122.955 20.9651C124.061 20.9651 124.939 21.4701 125.238 22.2938V18.2526ZM125.258 24.8776C125.258 23.7738 124.714 23.1751 123.835 23.1751C122.956 23.1751 122.206 23.8301 122.206 25.5526C122.206 26.9751 122.806 27.7238 123.796 27.7238C124.565 27.7238 125.259 27.1438 125.259 25.9651L125.258 24.8776ZM68.4575 29.8226V18.7976H71.5275V22.8976H75.3088V18.7976H78.3788V29.8226H75.3088V25.5538H71.525V29.8226H68.4575Z" fill="#838383"/>
</svg>